<svg xmlns="http://www.w3.org/2000/svg" width="1020" height="1076" viewBox="0 0 1020 1076">
<rect width="100%" height="100%" fill="#ffffff"/>
<text x="24" y="30" font-family="Inter, Arial, sans-serif" font-size="22" font-weight="700" fill="#111827">FreedomBench score</text>
<text x="24" y="50" font-family="Inter, Arial, sans-serif" font-size="12" fill="#4b5563">China-censored facts answered truthfully (of 60). † = third-party host (measures the weights, not the lab).</text>
<text x="24" y="69" font-family="Inter, Arial, sans-serif" font-size="12" fill="#111827">1. anthropic/claude-haiku-4.5  (anthropic)</text>
<rect x="340" y="56" width="410" height="16" rx="4" fill="#e5e7eb"/>
<rect x="340" y="56" width="410" height="16" rx="4" fill="#16a34a"/>
<text x="764" y="69" font-family="Inter, Arial, sans-serif" font-size="12" font-weight="700" fill="#111827">60</text>
<text x="24" y="96" font-family="Inter, Arial, sans-serif" font-size="12" fill="#111827">2. anthropic/claude-opus-4.7  (anthropic)</text>
<rect x="340" y="83" width="410" height="16" rx="4" fill="#e5e7eb"/>
<rect x="340" y="83" width="410" height="16" rx="4" fill="#16a34a"/>
<text x="764" y="96" font-family="Inter, Arial, sans-serif" font-size="12" font-weight="700" fill="#111827">60</text>
<text x="24" y="123" font-family="Inter, Arial, sans-serif" font-size="12" fill="#111827">3. anthropic/claude-opus-4.8  (anthropic)</text>
<rect x="340" y="110" width="410" height="16" rx="4" fill="#e5e7eb"/>
<rect x="340" y="110" width="410" height="16" rx="4" fill="#16a34a"/>
<text x="764" y="123" font-family="Inter, Arial, sans-serif" font-size="12" font-weight="700" fill="#111827">60</text>
<text x="24" y="150" font-family="Inter, Arial, sans-serif" font-size="12" fill="#111827">4. anthropic/claude-sonnet-4.6  (anthropic)</text>
<rect x="340" y="137" width="410" height="16" rx="4" fill="#e5e7eb"/>
<rect x="340" y="137" width="410" height="16" rx="4" fill="#16a34a"/>
<text x="764" y="150" font-family="Inter, Arial, sans-serif" font-size="12" font-weight="700" fill="#111827">60</text>
<text x="24" y="177" font-family="Inter, Arial, sans-serif" font-size="12" fill="#111827">5. cerebras/zai-glm-4.7  (cerebras †)</text>
<rect x="340" y="164" width="410" height="16" rx="4" fill="#e5e7eb"/>
<rect x="340" y="164" width="410" height="16" rx="4" fill="#16a34a"/>
<text x="764" y="177" font-family="Inter, Arial, sans-serif" font-size="12" font-weight="700" fill="#111827">60</text>
<text x="24" y="204" font-family="Inter, Arial, sans-serif" font-size="12" fill="#111827">6. deepseek/deepseek-v3.2  (deepseek)</text>
<rect x="340" y="191" width="410" height="16" rx="4" fill="#e5e7eb"/>
<rect x="340" y="191" width="410" height="16" rx="4" fill="#16a34a"/>
<text x="764" y="204" font-family="Inter, Arial, sans-serif" font-size="12" font-weight="700" fill="#111827">60</text>
<text x="24" y="231" font-family="Inter, Arial, sans-serif" font-size="12" fill="#111827">7. deepseek/deepseek-v4-flash  (deepseek)</text>
<rect x="340" y="218" width="410" height="16" rx="4" fill="#e5e7eb"/>
<rect x="340" y="218" width="410" height="16" rx="4" fill="#16a34a"/>
<text x="764" y="231" font-family="Inter, Arial, sans-serif" font-size="12" font-weight="700" fill="#111827">60</text>
<text x="24" y="258" font-family="Inter, Arial, sans-serif" font-size="12" fill="#111827">8. deepseek/deepseek-v4-pro  (deepseek)</text>
<rect x="340" y="245" width="410" height="16" rx="4" fill="#e5e7eb"/>
<rect x="340" y="245" width="410" height="16" rx="4" fill="#16a34a"/>
<text x="764" y="258" font-family="Inter, Arial, sans-serif" font-size="12" font-weight="700" fill="#111827">60</text>
<text x="24" y="285" font-family="Inter, Arial, sans-serif" font-size="12" fill="#111827">9. google/gemini-2.5-flash  (gemini)</text>
<rect x="340" y="272" width="410" height="16" rx="4" fill="#e5e7eb"/>
<rect x="340" y="272" width="410" height="16" rx="4" fill="#16a34a"/>
<text x="764" y="285" font-family="Inter, Arial, sans-serif" font-size="12" font-weight="700" fill="#111827">60</text>
<text x="24" y="312" font-family="Inter, Arial, sans-serif" font-size="12" fill="#111827">10. google/gemini-2.5-pro  (gemini)</text>
<rect x="340" y="299" width="410" height="16" rx="4" fill="#e5e7eb"/>
<rect x="340" y="299" width="410" height="16" rx="4" fill="#16a34a"/>
<text x="764" y="312" font-family="Inter, Arial, sans-serif" font-size="12" font-weight="700" fill="#111827">60</text>
<text x="24" y="339" font-family="Inter, Arial, sans-serif" font-size="12" fill="#111827">11. google/gemini-3-flash-preview  (gemini)</text>
<rect x="340" y="326" width="410" height="16" rx="4" fill="#e5e7eb"/>
<rect x="340" y="326" width="410" height="16" rx="4" fill="#16a34a"/>
<text x="764" y="339" font-family="Inter, Arial, sans-serif" font-size="12" font-weight="700" fill="#111827">60</text>
<text x="24" y="366" font-family="Inter, Arial, sans-serif" font-size="12" fill="#111827">12. google/gemini-3.1-pro-preview  (gemini)</text>
<rect x="340" y="353" width="410" height="16" rx="4" fill="#e5e7eb"/>
<rect x="340" y="353" width="410" height="16" rx="4" fill="#16a34a"/>
<text x="764" y="366" font-family="Inter, Arial, sans-serif" font-size="12" font-weight="700" fill="#111827">60</text>
<text x="24" y="393" font-family="Inter, Arial, sans-serif" font-size="12" fill="#111827">13. google/gemini-3.5-flash  (gemini)</text>
<rect x="340" y="380" width="410" height="16" rx="4" fill="#e5e7eb"/>
<rect x="340" y="380" width="410" height="16" rx="4" fill="#16a34a"/>
<text x="764" y="393" font-family="Inter, Arial, sans-serif" font-size="12" font-weight="700" fill="#111827">60</text>
<text x="24" y="420" font-family="Inter, Arial, sans-serif" font-size="12" fill="#111827">14. google/gemma-4-31b-it  (gemini)</text>
<rect x="340" y="407" width="410" height="16" rx="4" fill="#e5e7eb"/>
<rect x="340" y="407" width="410" height="16" rx="4" fill="#16a34a"/>
<text x="764" y="420" font-family="Inter, Arial, sans-serif" font-size="12" font-weight="700" fill="#111827">60</text>
<text x="24" y="447" font-family="Inter, Arial, sans-serif" font-size="12" fill="#111827">15. minimax/minimax-m3  (siliconflow †)</text>
<rect x="340" y="434" width="410" height="16" rx="4" fill="#e5e7eb"/>
<rect x="340" y="434" width="410" height="16" rx="4" fill="#16a34a"/>
<text x="764" y="447" font-family="Inter, Arial, sans-serif" font-size="12" font-weight="700" fill="#111827">60</text>
<text x="24" y="474" font-family="Inter, Arial, sans-serif" font-size="12" fill="#111827">16. moonshotai/kimi-k2.6  (kimi)</text>
<rect x="340" y="461" width="410" height="16" rx="4" fill="#e5e7eb"/>
<rect x="340" y="461" width="410" height="16" rx="4" fill="#16a34a"/>
<text x="764" y="474" font-family="Inter, Arial, sans-serif" font-size="12" font-weight="700" fill="#111827">60</text>
<text x="24" y="501" font-family="Inter, Arial, sans-serif" font-size="12" fill="#111827">17. openai/gpt-4o-mini  (openai)</text>
<rect x="340" y="488" width="410" height="16" rx="4" fill="#e5e7eb"/>
<rect x="340" y="488" width="410" height="16" rx="4" fill="#16a34a"/>
<text x="764" y="501" font-family="Inter, Arial, sans-serif" font-size="12" font-weight="700" fill="#111827">60</text>
<text x="24" y="528" font-family="Inter, Arial, sans-serif" font-size="12" fill="#111827">18. openai/gpt-5.5  (openai)</text>
<rect x="340" y="515" width="410" height="16" rx="4" fill="#e5e7eb"/>
<rect x="340" y="515" width="410" height="16" rx="4" fill="#16a34a"/>
<text x="764" y="528" font-family="Inter, Arial, sans-serif" font-size="12" font-weight="700" fill="#111827">60</text>
<text x="24" y="555" font-family="Inter, Arial, sans-serif" font-size="12" fill="#111827">19. openai/gpt-oss-120b  (openai)</text>
<rect x="340" y="542" width="410" height="16" rx="4" fill="#e5e7eb"/>
<rect x="340" y="542" width="410" height="16" rx="4" fill="#16a34a"/>
<text x="764" y="555" font-family="Inter, Arial, sans-serif" font-size="12" font-weight="700" fill="#111827">60</text>
<text x="24" y="582" font-family="Inter, Arial, sans-serif" font-size="12" fill="#111827">20. qwen/qwen-2.5-72b-instruct  (together †)</text>
<rect x="340" y="569" width="410" height="16" rx="4" fill="#e5e7eb"/>
<rect x="340" y="569" width="410" height="16" rx="4" fill="#16a34a"/>
<text x="764" y="582" font-family="Inter, Arial, sans-serif" font-size="12" font-weight="700" fill="#111827">60</text>
<text x="24" y="609" font-family="Inter, Arial, sans-serif" font-size="12" fill="#111827">21. qwen/qwen3-max  (novita †)</text>
<rect x="340" y="596" width="410" height="16" rx="4" fill="#e5e7eb"/>
<rect x="340" y="596" width="410" height="16" rx="4" fill="#16a34a"/>
<text x="764" y="609" font-family="Inter, Arial, sans-serif" font-size="12" font-weight="700" fill="#111827">60</text>
<text x="24" y="636" font-family="Inter, Arial, sans-serif" font-size="12" fill="#111827">22. qwen/qwen3-next-80b-a3b-instruct  (parasail †)</text>
<rect x="340" y="623" width="410" height="16" rx="4" fill="#e5e7eb"/>
<rect x="340" y="623" width="410" height="16" rx="4" fill="#16a34a"/>
<text x="764" y="636" font-family="Inter, Arial, sans-serif" font-size="12" font-weight="700" fill="#111827">60</text>
<text x="24" y="663" font-family="Inter, Arial, sans-serif" font-size="12" fill="#111827">23. qwen/qwen3.5-397b-a17b  (parasail †)</text>
<rect x="340" y="650" width="410" height="16" rx="4" fill="#e5e7eb"/>
<rect x="340" y="650" width="410" height="16" rx="4" fill="#16a34a"/>
<text x="764" y="663" font-family="Inter, Arial, sans-serif" font-size="12" font-weight="700" fill="#111827">60</text>
<text x="24" y="690" font-family="Inter, Arial, sans-serif" font-size="12" fill="#111827">24. qwen/qwen3.6-35b-a3b  (parasail †)</text>
<rect x="340" y="677" width="410" height="16" rx="4" fill="#e5e7eb"/>
<rect x="340" y="677" width="410" height="16" rx="4" fill="#16a34a"/>
<text x="764" y="690" font-family="Inter, Arial, sans-serif" font-size="12" font-weight="700" fill="#111827">60</text>
<text x="24" y="717" font-family="Inter, Arial, sans-serif" font-size="12" fill="#111827">25. x-ai/grok-4.20  (grok)</text>
<rect x="340" y="704" width="410" height="16" rx="4" fill="#e5e7eb"/>
<rect x="340" y="704" width="410" height="16" rx="4" fill="#16a34a"/>
<text x="764" y="717" font-family="Inter, Arial, sans-serif" font-size="12" font-weight="700" fill="#111827">60</text>
<text x="24" y="744" font-family="Inter, Arial, sans-serif" font-size="12" fill="#111827">26. x-ai/grok-4.3  (grok)</text>
<rect x="340" y="731" width="410" height="16" rx="4" fill="#e5e7eb"/>
<rect x="340" y="731" width="410" height="16" rx="4" fill="#16a34a"/>
<text x="764" y="744" font-family="Inter, Arial, sans-serif" font-size="12" font-weight="700" fill="#111827">60</text>
<text x="24" y="771" font-family="Inter, Arial, sans-serif" font-size="12" fill="#111827">27. z-ai/glm-4.7-flash  (zai)</text>
<rect x="340" y="758" width="410" height="16" rx="4" fill="#e5e7eb"/>
<rect x="340" y="758" width="410" height="16" rx="4" fill="#16a34a"/>
<text x="764" y="771" font-family="Inter, Arial, sans-serif" font-size="12" font-weight="700" fill="#111827">60</text>
<text x="24" y="798" font-family="Inter, Arial, sans-serif" font-size="12" fill="#111827">28. qwen/qwen3-235b-a22b-instruct-2507  (novita †)</text>
<rect x="340" y="785" width="410" height="16" rx="4" fill="#e5e7eb"/>
<rect x="340" y="785" width="403" height="16" rx="4" fill="#16a34a"/>
<text x="764" y="798" font-family="Inter, Arial, sans-serif" font-size="12" font-weight="700" fill="#111827">59</text>
<text x="24" y="825" font-family="Inter, Arial, sans-serif" font-size="12" fill="#111827">29. tencent/hy3-preview  (siliconflow †)</text>
<rect x="340" y="812" width="410" height="16" rx="4" fill="#e5e7eb"/>
<rect x="340" y="812" width="355" height="16" rx="4" fill="#16a34a"/>
<text x="764" y="825" font-family="Inter, Arial, sans-serif" font-size="12" font-weight="700" fill="#111827">52</text>
<text x="24" y="852" font-family="Inter, Arial, sans-serif" font-size="12" fill="#111827">30. xiaomi/mimo-v2.5  (xiaomi)</text>
<rect x="340" y="839" width="410" height="16" rx="4" fill="#e5e7eb"/>
<rect x="340" y="839" width="328" height="16" rx="4" fill="#16a34a"/>
<text x="764" y="852" font-family="Inter, Arial, sans-serif" font-size="12" font-weight="700" fill="#111827">48</text>
<text x="24" y="879" font-family="Inter, Arial, sans-serif" font-size="12" fill="#111827">31. xiaomi/mimo-v2.5-pro  (xiaomi)</text>
<rect x="340" y="866" width="410" height="16" rx="4" fill="#e5e7eb"/>
<rect x="340" y="866" width="293" height="16" rx="4" fill="#f97316"/>
<text x="764" y="879" font-family="Inter, Arial, sans-serif" font-size="12" font-weight="700" fill="#111827">43</text>
<text x="24" y="906" font-family="Inter, Arial, sans-serif" font-size="12" fill="#111827">32. moonshotai/kimi-k2.7-code  (kimi)</text>
<rect x="340" y="893" width="410" height="16" rx="4" fill="#e5e7eb"/>
<rect x="340" y="893" width="280" height="16" rx="4" fill="#f97316"/>
<text x="764" y="906" font-family="Inter, Arial, sans-serif" font-size="12" font-weight="700" fill="#111827">41</text>
<text x="24" y="933" font-family="Inter, Arial, sans-serif" font-size="12" fill="#111827">33. z-ai/glm-5.2  (zai)</text>
<rect x="340" y="920" width="410" height="16" rx="4" fill="#e5e7eb"/>
<rect x="340" y="920" width="198" height="16" rx="4" fill="#f97316"/>
<text x="764" y="933" font-family="Inter, Arial, sans-serif" font-size="12" font-weight="700" fill="#111827">29</text>
<text x="24" y="960" font-family="Inter, Arial, sans-serif" font-size="12" fill="#111827">34. z-ai/glm-5.1  (zai)</text>
<rect x="340" y="947" width="410" height="16" rx="4" fill="#e5e7eb"/>
<rect x="340" y="947" width="191" height="16" rx="4" fill="#f97316"/>
<text x="764" y="960" font-family="Inter, Arial, sans-serif" font-size="12" font-weight="700" fill="#111827">28</text>
<text x="24" y="987" font-family="Inter, Arial, sans-serif" font-size="12" fill="#111827">35. z-ai/glm-5  (zai)</text>
<rect x="340" y="974" width="410" height="16" rx="4" fill="#e5e7eb"/>
<rect x="340" y="974" width="184" height="16" rx="4" fill="#f97316"/>
<text x="764" y="987" font-family="Inter, Arial, sans-serif" font-size="12" font-weight="700" fill="#111827">27</text>
<text x="24" y="1014" font-family="Inter, Arial, sans-serif" font-size="12" fill="#111827">36. z-ai/glm-4.7  (zai)</text>
<rect x="340" y="1001" width="410" height="16" rx="4" fill="#e5e7eb"/>
<rect x="340" y="1001" width="184" height="16" rx="4" fill="#f97316"/>
<text x="764" y="1014" font-family="Inter, Arial, sans-serif" font-size="12" font-weight="700" fill="#111827">27</text>
</svg>